<svg width="50" height="50" viewBox="0 0 50 50" fill="none" xmlns="http://www.w3.org/2000/svg">
<path d="M39.5833 43.75H22.9167C22.3264 43.75 21.8316 43.5503 21.4323 43.151C21.033 42.7517 20.8333 42.2569 20.8333 41.6667C20.8333 41.0764 21.033 40.5816 21.4323 40.1823C21.8316 39.783 22.3264 39.5833 22.9167 39.5833H39.5833V10.4167H10.4167V16.6667C10.4167 17.2569 10.217 17.7517 9.81771 18.151C9.4184 18.5503 8.92361 18.75 8.33333 18.75C7.74306 18.75 7.24826 18.5503 6.84896 18.151C6.44965 17.7517 6.25 17.2569 6.25 16.6667V10.4167C6.25 9.27083 6.65799 8.28993 7.47396 7.47396C8.28993 6.65799 9.27083 6.25 10.4167 6.25H39.5833C40.7292 6.25 41.7101 6.65799 42.526 7.47396C43.342 8.28993 43.75 9.27083 43.75 10.4167V39.5833C43.75 40.7292 43.342 41.7101 42.526 42.526C41.7101 43.342 40.7292 43.75 39.5833 43.75ZM33.3333 27.0833C33.9236 27.0833 34.4184 26.8837 34.8177 26.4844C35.217 26.0851 35.4167 25.5903 35.4167 25C35.4167 24.4097 35.217 23.9149 34.8177 23.5156C34.4184 23.1163 33.9236 22.9167 33.3333 22.9167H22.9167C22.3264 22.9167 21.8316 23.1163 21.4323 23.5156C21.033 23.9149 20.8333 24.4097 20.8333 25C20.8333 25.5903 21.033 26.0851 21.4323 26.4844C21.8316 26.8837 22.3264 27.0833 22.9167 27.0833H33.3333ZM27.0833 35.4167C27.6736 35.4167 28.1684 35.217 28.5677 34.8177C28.967 34.4184 29.1667 33.9236 29.1667 33.3333C29.1667 32.7431 28.967 32.2483 28.5677 31.849C28.1684 31.4497 27.6736 31.25 27.0833 31.25H22.9167C22.3264 31.25 21.8316 31.4497 21.4323 31.849C21.033 32.2483 20.8333 32.7431 20.8333 33.3333C20.8333 33.9236 21.033 34.4184 21.4323 34.8177C21.8316 35.217 22.3264 35.4167 22.9167 35.4167H27.0833ZM33.3333 18.75C33.9236 18.75 34.4184 18.5503 34.8177 18.151C35.217 17.7517 35.4167 17.2569 35.4167 16.6667C35.4167 16.0764 35.217 15.5816 34.8177 15.1823C34.4184 14.783 33.9236 14.5833 33.3333 14.5833H16.6667C16.0764 14.5833 15.5816 14.783 15.1823 15.1823C14.783 15.5816 14.5833 16.0764 14.5833 16.6667C14.5833 17.2569 14.783 17.7517 15.1823 18.151C15.5816 18.5503 16.0764 18.75 16.6667 18.75H33.3333ZM13.8021 45.8333C11.059 45.8333 8.72396 44.8698 6.79688 42.9427C4.86979 41.0156 3.90625 38.6806 3.90625 35.9375C3.90625 33.9583 4.4184 32.1875 5.44271 30.625C6.46701 29.0625 7.8125 27.8819 9.47917 27.0833H6.25C5.65972 27.0833 5.16493 26.8837 4.76562 26.4844C4.36632 26.0851 4.16667 25.5903 4.16667 25C4.16667 24.4097 4.36632 23.9149 4.76562 23.5156C5.16493 23.1163 5.65972 22.9167 6.25 22.9167H14.5833C15.1736 22.9167 15.6684 23.1163 16.0677 23.5156C16.467 23.9149 16.6667 24.4097 16.6667 25V33.3333C16.6667 33.9236 16.467 34.4184 16.0677 34.8177C15.6684 35.217 15.1736 35.4167 14.5833 35.4167C13.9931 35.4167 13.4983 35.217 13.099 34.8177C12.6997 34.4184 12.5 33.9236 12.5 33.3333V30.3646C11.2153 30.6424 10.1562 31.3021 9.32292 32.3438C8.48958 33.3854 8.07292 34.5833 8.07292 35.9375C8.07292 37.5347 8.63715 38.8889 9.76562 40C10.8941 41.1111 12.2396 41.6667 13.8021 41.6667C14.3924 41.6667 14.8872 41.8663 15.2865 42.2656C15.6858 42.6649 15.8854 43.1597 15.8854 43.75C15.8854 44.3403 15.6858 44.8351 15.2865 45.2344C14.8872 45.6337 14.3924 45.8333 13.8021 45.8333Z" fill="white"/>
</svg>
