<svg width="50" height="50" viewBox="0 0 50 50" fill="none" xmlns="http://www.w3.org/2000/svg">
<path d="M35.4167 41.6667C35.6944 41.6667 35.9375 41.5625 36.1458 41.3542C36.3542 41.1459 36.4583 40.9028 36.4583 40.625V34.375C36.4583 34.0972 36.3542 33.8542 36.1458 33.6459C35.9375 33.4375 35.6944 33.3334 35.4167 33.3334C35.1389 33.3334 34.8958 33.4375 34.6875 33.6459C34.4792 33.8542 34.375 34.0972 34.375 34.375V40.625C34.375 40.9028 34.4792 41.1459 34.6875 41.3542C34.8958 41.5625 35.1389 41.6667 35.4167 41.6667ZM35.4167 31.25C35.6944 31.25 35.9375 31.1459 36.1458 30.9375C36.3542 30.7292 36.4583 30.4861 36.4583 30.2084C36.4583 29.9306 36.3542 29.6875 36.1458 29.4792C35.9375 29.2709 35.6944 29.1667 35.4167 29.1667C35.1389 29.1667 34.8958 29.2709 34.6875 29.4792C34.4792 29.6875 34.375 29.9306 34.375 30.2084C34.375 30.4861 34.4792 30.7292 34.6875 30.9375C34.8958 31.1459 35.1389 31.25 35.4167 31.25ZM16.6667 29.1667H22.2396C22.6215 28.3681 23.0642 27.6215 23.5677 26.9271C24.0712 26.2327 24.6354 25.5903 25.2604 25H16.6667C16.0764 25 15.5816 25.1997 15.1823 25.599C14.783 25.9983 14.5833 26.4931 14.5833 27.0834C14.5833 27.6736 14.783 28.1684 15.1823 28.5677C15.5816 28.967 16.0764 29.1667 16.6667 29.1667ZM16.6667 37.5H20.9896C20.8854 36.8056 20.8333 36.1111 20.8333 35.4167C20.8333 34.7222 20.8854 34.0278 20.9896 33.3334H16.6667C16.0764 33.3334 15.5816 33.533 15.1823 33.9323C14.783 34.3316 14.5833 34.8264 14.5833 35.4167C14.5833 36.007 14.783 36.5018 15.1823 36.9011C15.5816 37.3004 16.0764 37.5 16.6667 37.5ZM10.4167 45.8334C9.27083 45.8334 8.28993 45.4254 7.47396 44.6094C6.65799 43.7934 6.25 42.8125 6.25 41.6667V8.33335C6.25 7.18752 6.65799 6.20662 7.47396 5.39065C8.28993 4.57467 9.27083 4.16669 10.4167 4.16669H25.3646C25.9201 4.16669 26.4497 4.27085 26.9531 4.47919C27.4566 4.68752 27.8993 4.98266 28.2812 5.3646L38.3854 15.4688C38.7674 15.8507 39.0625 16.2934 39.2708 16.7969C39.4792 17.3004 39.5833 17.8299 39.5833 18.3854V21.4584C38.9236 21.25 38.2465 21.0938 37.5521 20.9896C36.8576 20.8854 36.1458 20.8334 35.4167 20.8334V18.75H27.0833C26.4931 18.75 25.9983 18.5504 25.599 18.1511C25.1997 17.7518 25 17.257 25 16.6667V8.33335H11.4583C10.883 8.33335 10.4167 8.79972 10.4167 9.37502V40.625C10.4167 41.2003 10.883 41.6667 11.4583 41.6667H22.2396C22.6215 42.4653 23.0642 43.2118 23.5677 43.9063C24.0712 44.6007 24.6354 45.2431 25.2604 45.8334H10.4167ZM35.4167 25C38.2986 25 40.7552 26.0156 42.7865 28.0469C44.8177 30.0781 45.8333 32.5347 45.8333 35.4167C45.8333 38.2986 44.8177 40.7552 42.7865 42.7865C40.7552 44.8177 38.2986 45.8334 35.4167 45.8334C32.5347 45.8334 30.0781 44.8177 28.0469 42.7865C26.0156 40.7552 25 38.2986 25 35.4167C25 32.5347 26.0156 30.0781 28.0469 28.0469C30.0781 26.0156 32.5347 25 35.4167 25Z" fill="white"/>
</svg>
